<?xml version="1.0" encoding="UTF-8"?>
<svg width="91px" height="17px" viewBox="0 0 91 17" version="1.1" xmlns="http://www.w3.org/2000/svg" xmlns:xlink="http://www.w3.org/1999/xlink">
    <title>Group</title>
    <g id="Pages" stroke="none" stroke-width="1" fill="none" fill-rule="evenodd">
        <g id="Hotels" transform="translate(-1078.000000, -389.000000)" fill="#81B3D2" fill-rule="nonzero">
            <g id="content" transform="translate(40.000000, 359.000000)">
                <g id="Group" transform="translate(1038.000000, 30.000000)">
                    <g id="star">
                        <polygon id="Shape" points="9.002 0 11.128 6.494 18.005 6.494 12.441 10.506 14.566 17 9.002 12.987 3.438 17 5.564 10.506 0 6.494 6.878 6.494"></polygon>
                    </g>
                    <g transform="translate(24.000000, 0.000000)" id="star">
                        <polygon id="Shape" points="9.002 0 11.128 6.494 18.005 6.494 12.441 10.506 14.566 17 9.002 12.987 3.438 17 5.564 10.506 0 6.494 6.878 6.494"></polygon>
                    </g>
                    <g transform="translate(49.000000, 0.000000)" id="star">
                        <polygon id="Shape" points="9.002 0 11.128 6.494 18.005 6.494 12.441 10.506 14.566 17 9.002 12.987 3.438 17 5.564 10.506 0 6.494 6.878 6.494"></polygon>
                    </g>
                    <g transform="translate(72.000000, 0.000000)" id="star">
                        <polygon id="Shape" points="9.002 0 11.128 6.494 18.005 6.494 12.441 10.506 14.566 17 9.002 12.987 3.438 17 5.564 10.506 0 6.494 6.878 6.494"></polygon>
                    </g>
                </g>
            </g>
        </g>
    </g>
</svg>